<?xml version="1.0" encoding="UTF-8"?><svg id="Layer_2" xmlns="http://www.w3.org/2000/svg" viewBox="0 0 769.76 152.99"><defs><style>.cls-1{fill:#fff;}</style></defs><g id="Layer_1-2"><g><g><path class="cls-1" d="M0,101.68l7.18-16.13c6.85,4.53,16.57,7.62,25.52,7.62s12.59-2.54,12.59-6.3c0-12.26-43.96-3.31-43.96-32.03,0-13.81,11.27-25.07,34.24-25.07,10.05,0,20.43,2.32,28.06,6.74l-6.74,16.24c-7.4-3.98-14.69-5.96-21.43-5.96-9.17,0-12.48,3.09-12.48,6.96,0,11.82,43.85,2.98,43.85,31.48,0,13.48-11.27,24.96-34.24,24.96-12.7,0-25.29-3.42-32.58-8.51Z"/><path class="cls-1" d="M103.06,87.65l-6.19,6.3v14.69h-20.99V26.68h20.99v42.97l21.43-20.88h24.85l-24.85,25.63,26.95,34.24h-25.41l-16.79-20.99Z"/><path class="cls-1" d="M149.12,30.98c0-6.3,5.08-11.16,12.81-11.16s12.81,4.53,12.81,10.83c0,6.63-5.08,11.49-12.81,11.49s-12.81-4.86-12.81-11.16Zm2.32,17.78h20.99v59.87h-20.99V48.77Z"/><path class="cls-1" d="M186.01,26.68h20.99V108.64h-20.99V26.68Z"/><path class="cls-1" d="M220.59,26.68h20.99V108.64h-20.99V26.68Z"/><path class="cls-1" d="M250.41,103.45l6.3-14.36c5.52,3.42,13.59,5.52,20.88,5.52s9.39-1.55,9.39-4.09c0-8.06-35.35,1.1-35.35-22.86,0-11.27,10.38-19.88,29.16-19.88,8.4,0,17.67,1.77,23.64,5.08l-6.3,14.25c-5.96-3.31-11.93-4.42-17.23-4.42-7.07,0-9.61,1.99-9.61,4.2,0,8.28,35.24-.66,35.24,23.09,0,11.05-10.16,19.66-29.6,19.66-10.16,0-20.66-2.54-26.51-6.19Z"/><path class="cls-1" d="M356.89,106.21c-3.65,2.32-9.06,3.42-14.58,3.42-15.35,0-24.3-7.51-24.3-22.86v-20.1h-8.73v-15.69h8.73v-15.57h20.99v15.57h13.7v15.69h-13.7v19.88c0,4.42,2.54,6.85,6.3,6.85,2.32,0,4.64-.66,6.41-1.88l5.19,14.69Z"/><path class="cls-1" d="M405.05,47.77v18.89c-1.88-.22-3.2-.33-4.75-.33-8.5,0-14.36,4.31-14.36,14.8v27.5h-20.99V48.77h19.99v7.18c4.31-5.41,11.27-8.17,20.1-8.17Z"/><path class="cls-1" d="M411.35,30.98c0-6.3,5.08-11.16,12.81-11.16s12.81,4.53,12.81,10.83c0,6.63-5.08,11.49-12.81,11.49s-12.81-4.86-12.81-11.16Zm2.32,17.78h20.99v59.87h-20.99V48.77Z"/><path class="cls-1" d="M511.87,26.68V108.64h-19.99v-5.96c-3.98,4.75-9.83,6.96-17.56,6.96-16.35,0-29.49-11.93-29.49-31.04s13.14-30.82,29.49-30.82c6.96,0,12.59,1.99,16.57,6.19V26.68h20.99Zm-20.66,51.92c0-9.06-5.41-14.14-12.48-14.14s-12.59,5.08-12.59,14.14,5.41,14.36,12.59,14.36,12.48-5.19,12.48-14.36Z"/><path class="cls-1" d="M586.21,84h-43.52c1.77,6.08,6.96,9.61,14.69,9.61,5.85,0,9.72-1.66,13.81-5.19l11.05,11.49c-5.74,6.41-14.14,9.72-25.52,9.72-21.32,0-35.13-13.14-35.13-31.04s14.03-30.82,32.92-30.82c17.67,0,32.03,11.27,32.03,31.04,0,1.55-.22,3.53-.33,5.19Zm-43.85-11.05h24.52c-1.1-6.3-5.74-10.27-12.26-10.27s-11.05,3.98-12.26,10.27Z"/><path class="cls-1" d="M591.51,103.45l6.3-14.36c5.52,3.42,13.59,5.52,20.88,5.52s9.39-1.55,9.39-4.09c0-8.06-35.35,1.1-35.35-22.86,0-11.27,10.38-19.88,29.16-19.88,8.4,0,17.67,1.77,23.64,5.08l-6.3,14.25c-5.96-3.31-11.93-4.42-17.23-4.42-7.07,0-9.61,1.99-9.61,4.2,0,8.28,35.24-.66,35.24,23.09,0,11.05-10.16,19.66-29.6,19.66-10.16,0-20.66-2.54-26.51-6.19Z"/></g><g><polygon class="cls-1" points="691.56 72.04 694.62 93.1 694.77 93.26 761.09 26.94 757.99 5.63 757.98 5.62 691.56 72.04"/><polygon class="cls-1" points="666.31 87.58 732.56 21.33 729.46 0 663.03 66.43 666.07 87.34 666.31 87.58"/><polygon class="cls-1" points="766.51 65.36 700.22 131.65 703.33 152.99 769.76 86.55 766.7 65.55 766.51 65.36"/><polygon class="cls-1" points="671.69 126.04 674.78 147.26 674.84 147.33 741.23 80.95 738.15 59.79 738.05 59.69 671.69 126.04"/></g></g></g></svg>