<?xml version="1.0" encoding="UTF-8"?><svg id="Layer_2" xmlns="http://www.w3.org/2000/svg" viewBox="0 0 772.08 152.99"><defs><style>.cls-1,.cls-2{fill:#fff;}.cls-3{letter-spacing:0em;}.cls-4{letter-spacing:0em;}.cls-2{font-family:Montserrat-ExtraBold, Montserrat;font-size:110.46px;}</style></defs><g id="Layer_1-2"><g><text class="cls-2" transform="translate(0 108.64)"><tspan x="0" y="0">S</tspan><tspan class="cls-3" x="71.47" y="0">k</tspan><tspan x="147.02" y="0">illst</tspan><tspan class="cls-4" x="360.54" y="0">r</tspan><tspan x="409.25" y="0">ides</tspan></text><g><polygon class="cls-1" points="693.88 72.04 696.94 93.1 697.09 93.26 763.41 26.94 760.31 5.63 760.3 5.62 693.88 72.04"/><polygon class="cls-1" points="668.63 87.58 734.88 21.33 731.78 0 665.35 66.43 668.38 87.34 668.63 87.58"/><polygon class="cls-1" points="768.83 65.36 702.54 131.65 705.65 152.99 772.08 86.55 769.02 65.55 768.83 65.36"/><polygon class="cls-1" points="674.01 126.04 677.1 147.26 677.16 147.33 743.55 80.95 740.47 59.79 740.37 59.69 674.01 126.04"/></g></g></g></svg>